<?xml version="1.0" encoding="UTF-8"?>
<svg id="_레이어_2" data-name="레이어 2" xmlns="http://www.w3.org/2000/svg" viewBox="0 0 283.46 28.78">
  <defs>
    <style>
      .cls-1 {
        fill: #231815;
        stroke-width: 0px;
      }
    </style>
  </defs>
  <g id="_레이어_1-2" data-name="레이어 1">
    <g>
      <path class="cls-1" d="m18.59,5.96c-.76-.89-1.68-1.57-2.76-2.03-1.09-.46-2.25-.69-3.5-.69-1.71,0-3.24.43-4.59,1.29-1.36.86-2.42,2.13-3.21,3.8-.78,1.67-1.18,3.67-1.18,6.01s.39,4.32,1.18,5.98c.78,1.66,1.85,2.93,3.21,3.8,1.35.87,2.89,1.31,4.59,1.32,1.25-.01,2.41-.25,3.5-.7,1.09-.46,2-1.13,2.75-2.01s1.26-1.95,1.53-3.18h3.47c-.33,1.86-1.03,3.48-2.08,4.86-1.05,1.38-2.37,2.44-3.96,3.17-1.59.73-3.32,1.1-5.21,1.1-2.39,0-4.51-.58-6.38-1.75-1.86-1.17-3.32-2.83-4.37-5-1.05-2.16-1.58-4.69-1.58-7.58s.53-5.42,1.58-7.58c1.05-2.16,2.51-3.83,4.37-5,1.86-1.17,3.99-1.75,6.38-1.75,1.89,0,3.62.36,5.21,1.08,1.59.72,2.91,1.77,3.96,3.16,1.05,1.39,1.75,3.03,2.08,4.93h-3.47c-.26-1.25-.76-2.31-1.52-3.21Z"/>
      <path class="cls-1" d="m33.13,28.28L43.34.39h3.66l10.21,27.9h-3.66l-8.28-23.39h-.23l-8.28,23.39h-3.62Zm19.19-10.9v3.04h-14.29v-3.04h14.29Z"/>
      <path class="cls-1" d="m71.55,28.28h-3.47V.39h3.47v27.9Zm-1.54,0v-3.08h6.51c2.25,0,4.13-.44,5.63-1.31,1.51-.87,2.64-2.12,3.38-3.75.74-1.62,1.12-3.57,1.12-5.85s-.37-4.2-1.1-5.82-1.83-2.86-3.29-3.72c-1.46-.86-3.26-1.29-5.39-1.29h-7.01V.39h7.24c2.7,0,5.02.55,6.95,1.66,1.94,1.1,3.42,2.7,4.45,4.8,1.03,2.09,1.54,4.58,1.54,7.46s-.52,5.4-1.56,7.49c-1.04,2.09-2.56,3.7-4.55,4.82-1.99,1.12-4.39,1.68-7.19,1.68h-6.74Z"/>
      <path class="cls-1" d="m98.52,28.28L108.73.39h3.66l10.21,27.9h-3.66l-8.28-23.39h-.23l-8.28,23.39h-3.62Zm19.19-10.9v3.04h-14.29v-3.04h14.29Z"/>
      <path class="cls-1" d="m133.48.39h3.47v24.81h12.95v3.08h-16.41V.39Z"/>
      <path class="cls-1" d="m182.52,21.91c-1.05,2.16-2.51,3.83-4.38,5-1.87,1.17-3.99,1.75-6.37,1.75s-4.51-.58-6.38-1.75c-1.86-1.17-3.32-2.83-4.37-5-1.05-2.16-1.58-4.69-1.58-7.58s.53-5.42,1.58-7.58c1.05-2.16,2.51-3.83,4.37-5,1.86-1.17,3.99-1.75,6.38-1.75s4.5.58,6.37,1.75c1.87,1.17,3.33,2.84,4.38,5,1.05,2.16,1.58,4.69,1.58,7.58s-.53,5.42-1.58,7.58Zm-2.95-13.59c-.78-1.67-1.85-2.93-3.21-3.8-1.36-.86-2.89-1.29-4.59-1.29s-3.24.43-4.59,1.29c-1.36.86-2.42,2.13-3.21,3.8-.78,1.67-1.18,3.67-1.18,6.01s.39,4.32,1.18,5.98c.78,1.66,1.85,2.93,3.21,3.8,1.36.87,2.89,1.31,4.59,1.32,1.71-.01,3.24-.45,4.59-1.32,1.36-.87,2.42-2.13,3.21-3.8.78-1.66,1.18-3.66,1.18-5.98s-.39-4.34-1.18-6.01Z"/>
      <path class="cls-1" d="m213.61,5.97c-.74-.87-1.63-1.55-2.67-2.02-1.04-.47-2.22-.71-3.53-.71-1.67,0-3.17.43-4.51,1.29-1.34.86-2.4,2.13-3.18,3.8-.78,1.67-1.18,3.67-1.18,6.01s.4,4.33,1.19,5.99,1.88,2.92,3.24,3.79c1.36.87,2.92,1.31,4.66,1.32,1.58,0,2.98-.34,4.19-1.02,1.21-.68,2.15-1.64,2.82-2.89.67-1.25,1-2.7,1-4.37l1.04.19h-8.32v-3.04h10.67v3.01c0,2.27-.48,4.27-1.44,5.98s-2.31,3.04-4.05,3.98c-1.73.94-3.71,1.41-5.91,1.41-2.48,0-4.66-.58-6.54-1.75-1.88-1.17-3.34-2.83-4.36-4.99s-1.54-4.69-1.54-7.59.51-5.42,1.54-7.58c1.03-2.16,2.47-3.83,4.32-5,1.85-1.17,3.97-1.75,6.36-1.75,1.94,0,3.72.38,5.35,1.14,1.63.76,2.97,1.83,4.03,3.21,1.06,1.38,1.76,2.96,2.11,4.75h-3.58c-.4-1.21-.97-2.25-1.7-3.12Z"/>
      <path class="cls-1" d="m253.09.39v18.46c0,1.9-.45,3.6-1.35,5.11-.9,1.5-2.17,2.68-3.81,3.54-1.64.86-3.54,1.29-5.7,1.29s-4.06-.43-5.7-1.29c-1.64-.86-2.92-2.04-3.81-3.54s-1.35-3.2-1.35-5.11V.39h3.47v18.19c0,1.35.3,2.55.89,3.59.59,1.05,1.45,1.87,2.57,2.48,1.12.6,2.44.91,3.94.91s2.82-.3,3.94-.91c1.12-.6,1.98-1.43,2.56-2.48.58-1.05.88-2.24.9-3.59V.39h3.47Z"/>
      <path class="cls-1" d="m266.36.39h16.91v3.08h-13.45v9.32h12.56v3.04h-12.56v9.36h13.64v3.08h-17.11V.39Z"/>
    </g>
  </g>
</svg>